<svg xmlns="http://www.w3.org/2000/svg"
viewBox="0 0 1019 253" width="1019" height="253">
<g fill="#F7F3E8" fill-rule="evenodd">
  <path d="M 1015 242 L 1015 139 L 1014 138 L 1014 133 L 1013 132 L 1013 129 L 1012 128 L 1009 117 L 999 101 L 993 95 L 993 94 L 992 94 L 985 87 L 970 78 L 968 78 L 965 76 L 963 76 L 956 73 L 952 73 L 951 72 L 947 72 L 946 71 L 929 71 L 928 72 L 923 72 L 922 73 L 919 73 L 918 74 L 915 74 L 914 75 L 909 76 L 892 85 L 879 97 L 870 110 L 869 114 L 865 122 L 865 125 L 863 130 L 863 134 L 862 135 L 862 155 L 863 156 L 863 160 L 864 161 L 866 169 L 872 181 L 875 185 L 881 191 L 881 192 L 888 198 L 902 206 L 904 206 L 910 209 L 913 209 L 918 211 L 925 211 L 926 212 L 980 212 L 981 213 L 981 215 L 980 216 L 794 216 L 792 214 L 800 206 L 810 190 L 810 188 L 812 185 L 813 179 L 815 175 L 817 157 L 816 156 L 816 146 L 815 145 L 815 141 L 814 140 L 814 137 L 813 136 L 812 131 L 806 118 L 800 109 L 788 96 L 777 88 L 765 82 L 763 82 L 756 79 L 747 78 L 746 77 L 724 77 L 723 78 L 718 78 L 717 79 L 710 80 L 704 83 L 702 83 L 691 89 L 680 97 L 672 105 L 664 116 L 657 130 L 657 132 L 655 136 L 655 139 L 654 140 L 654 143 L 653 144 L 653 151 L 652 152 L 652 165 L 653 166 L 653 172 L 654 173 L 654 176 L 655 177 L 655 180 L 656 181 L 657 186 L 666 202 L 677 214 L 676 216 L 497 216 L 496 214 L 500 212 L 499 207 L 497 204 L 494 194 L 491 189 L 491 187 L 485 174 L 484 169 L 482 166 L 478 153 L 476 150 L 476 148 L 472 140 L 471 135 L 467 127 L 466 122 L 463 117 L 456 118 L 453 120 L 451 120 L 450 121 L 445 122 L 442 124 L 431 127 L 428 129 L 429 136 L 431 139 L 436 155 L 438 158 L 441 168 L 447 181 L 448 186 L 454 199 L 459 215 L 458 216 L 419 216 L 417 214 L 417 109 L 416 107 L 414 106 L 383 106 L 379 109 L 379 215 L 378 216 L 365 216 L 363 213 L 364 212 L 364 110 L 363 108 L 360 106 L 330 106 L 326 109 L 326 212 L 323 215 L 321 216 L 207 216 L 206 215 L 197 214 L 185 209 L 172 198 L 172 197 L 168 193 L 161 177 L 161 173 L 160 172 L 160 83 L 155 77 L 79 77 L 78 78 L 73 78 L 72 79 L 65 80 L 49 87 L 33 98 L 25 106 L 25 107 L 18 115 L 9 132 L 9 134 L 6 141 L 6 144 L 4 149 L 4 155 L 3 156 L 3 172 L 4 173 L 4 179 L 5 180 L 6 187 L 7 188 L 9 196 L 11 199 L 11 201 L 21 217 L 36 232 L 45 237 L 47 239 L 64 246 L 67 246 L 72 248 L 77 248 L 78 249 L 115 249 L 118 247 L 120 244 L 120 221 L 119 219 L 115 216 L 85 216 L 84 215 L 75 214 L 63 209 L 56 204 L 48 196 L 40 182 L 40 180 L 38 176 L 38 172 L 37 171 L 37 156 L 38 155 L 38 151 L 39 150 L 40 145 L 48 131 L 56 123 L 65 118 L 67 116 L 71 115 L 74 113 L 77 113 L 82 111 L 124 111 L 126 113 L 126 177 L 127 178 L 128 187 L 134 203 L 136 205 L 138 210 L 142 216 L 147 221 L 147 222 L 161 234 L 167 237 L 169 239 L 180 244 L 182 244 L 186 246 L 189 246 L 190 247 L 193 247 L 194 248 L 198 248 L 199 249 L 1008 249 L 1010 248 Z M 719 113 L 722 113 L 727 111 L 742 111 L 743 112 L 747 112 L 753 115 L 755 115 L 767 123 L 772 128 L 780 141 L 780 143 L 782 147 L 782 150 L 783 151 L 783 166 L 782 167 L 781 173 L 773 187 L 761 198 L 751 203 L 744 204 L 743 205 L 725 205 L 724 204 L 718 203 L 706 197 L 701 192 L 700 192 L 694 185 L 688 174 L 688 172 L 686 168 L 685 156 L 686 155 L 686 149 L 687 148 L 688 143 L 693 133 L 704 121 L 710 118 L 712 116 L 716 115 Z M 902 123 L 916 110 L 920 108 L 922 108 L 926 106 L 930 106 L 931 105 L 945 105 L 946 106 L 952 107 L 963 113 L 973 123 L 977 129 L 980 137 L 980 140 L 981 141 L 981 181 L 980 182 L 929 182 L 928 181 L 921 180 L 910 174 L 901 164 L 898 159 L 898 157 L 896 153 L 896 145 L 895 144 L 896 143 L 896 136 L 897 135 L 898 130 Z"/>
  <path d="M 730 8 L 723 11 L 716 18 L 714 23 L 714 26 L 713 27 L 713 32 L 714 33 L 714 36 L 716 41 L 723 48 L 730 51 L 740 51 L 747 48 L 751 45 L 754 41 L 757 34 L 757 25 L 753 16 L 747 11 L 740 8 Z"/>
  <path d="M 963 3 L 956 6 L 952 9 L 949 13 L 946 21 L 946 28 L 949 36 L 954 42 L 957 44 L 959 44 L 963 46 L 973 46 L 980 43 L 987 36 L 990 28 L 989 17 L 985 10 L 980 6 L 974 3 Z"/>
  <path d="M 909 3 L 902 6 L 895 13 L 893 18 L 893 21 L 892 22 L 892 28 L 895 36 L 898 40 L 902 43 L 909 46 L 919 46 L 920 45 L 925 44 L 928 42 L 934 35 L 934 33 L 936 29 L 936 19 L 932 11 L 925 5 L 920 3 Z"/>
</g></svg>